<svg height="2078" width="720" xmlns="http://www.w3.org/2000/svg">
<rect height="2078" fill="#555" width="720"></rect>
<text fill="#7f7" font-family="Courier New" font-size="12" xml:space="preserve">
<tspan x="10" y="26"></tspan>
<tspan x="10" y="42">&gt; npmdoc-gulp-sourcemaps@0.0.1 test /home/travis/build/npmdoc/node-npmdoc-gulp-sourcemaps</tspan>
<tspan x="10" y="58">&gt; (set -e; export PORT=$(utility2 shServerPortRandom); utility2 test test.js)</tspan>
<tspan x="10" y="74"></tspan>
<tspan x="10" y="90"></tspan>
<tspan x="10" y="106">[MODE_BUILD=npmTest] - 2017-03-19T09:24:11Z - npm-testing /home/travis/build/npmdoc/node-npmdoc-\</tspan>
<tspan x="10" y="122">gulp-sourcemaps</tspan>
<tspan x="10" y="138"></tspan>
<tspan x="10" y="154"></tspan>
<tspan x="10" y="170">covering $ /home/travis/.nvm/versions/node/v7.7.3/bin/node /home/travis/build/npmdoc/node-npmdoc\</tspan>
<tspan x="10" y="186">-gulp-sourcemaps/test.js</tspan>
<tspan x="10" y="202">merging file:///home/travis/build/npmdoc/node-npmdoc-gulp-sourcemaps/tmp/build/test-report.json \</tspan>
<tspan x="10" y="218">to test-report</tspan>
<tspan x="10" y="234">&gt; server listening on http-port 51066</tspan>
<tspan x="10" y="250">apidocCreate - normalizing dir gulp-sourcemaps</tspan>
<tspan x="10" y="266">apidocCreate - normalized dir /home/travis/build/npmdoc/node-npmdoc-gulp-sourcemaps/node_modules\</tspan>
<tspan x="10" y="282">/gulp-sourcemaps</tspan>
<tspan x="10" y="298">created apidoc file:///home/travis/build/npmdoc/node-npmdoc-gulp-sourcemaps/tmp/build/apidoc.htm\</tspan>
<tspan x="10" y="314">l</tspan>
<tspan x="10" y="330"></tspan>
<tspan x="10" y="346"></tspan>
<tspan x="10" y="362">browserTest - created electron entry-page /home/travis/build/npmdoc/node-npmdoc-gulp-sourcemaps/\</tspan>
<tspan x="10" y="378">tmp/electron.15ae5e19a240.290d39a635546.html</tspan>
<tspan x="10" y="394"></tspan>
<tspan x="10" y="410">apidocCreate - normalizing dir gulp-sourcemaps</tspan>
<tspan x="10" y="426">apidocCreate - normalized dir /home/travis/build/npmdoc/node-npmdoc-gulp-sourcemaps/node_modules\</tspan>
<tspan x="10" y="442">/gulp-sourcemaps</tspan>
<tspan x="10" y="458">[node test-case 1 of 6 passed] - testCase_buildLib_default</tspan>
<tspan x="10" y="474">[node test-case 2 of 6 passed] - testCase_buildReadme_default</tspan>
<tspan x="10" y="490">[node test-case 3 of 6 passed] - testCase_buildTest_default</tspan>
<tspan x="10" y="506"></tspan>
<tspan x="10" y="522">browserTest - created electron entry-page /home/travis/build/npmdoc/node-npmdoc-gulp-sourcemaps/\</tspan>
<tspan x="10" y="538">tmp/electron.15ae5e19a670.cb2ddce0db04c.html</tspan>
<tspan x="10" y="554"></tspan>
<tspan x="10" y="570">(node:4364) DeprecationWarning: node --debug is deprecated. Please use node --inspect instead.</tspan>
<tspan x="10" y="586">Xlib:  extension "RANDR" missing on display ":99.0".</tspan>
<tspan x="10" y="602">Xlib:  extension "RANDR" missing on display ":99.0".</tspan>
<tspan x="10" y="618">&gt; server listening on http-port 58000</tspan>
<tspan x="10" y="634">merging file:///home/travis/build/npmdoc/node-npmdoc-gulp-sourcemaps/tmp/build/test-report.json \</tspan>
<tspan x="10" y="650">to test-report</tspan>
<tspan x="10" y="666">merging file:///home/travis/build/npmdoc/node-npmdoc-gulp-sourcemaps/tmp/build/test-report.json \</tspan>
<tspan x="10" y="682">to test-report</tspan>
<tspan x="10" y="698">Xlib:  extension "RANDR" missing on display ":99.0".</tspan>
<tspan x="10" y="714">Xlib:  extension "RANDR" missing on display ":99.0".</tspan>
<tspan x="10" y="730">[4395:0319/092413:WARNING:audio_manager.cc(314)] Multiple instances of AudioManager detected</tspan>
<tspan x="10" y="746">[4395:0319/092413:WARNING:audio_manager.cc(275)] Multiple instances of AudioManager detected</tspan>
<tspan x="10" y="762">[4396:0319/092413:WARNING:audio_manager.cc(314)] Multiple instances of AudioManager detected</tspan>
<tspan x="10" y="778">[4396:0319/092413:WARNING:audio_manager.cc(275)] Multiple instances of AudioManager detected</tspan>
<tspan x="10" y="794">[4438:0319/092413:ERROR:sandbox_linux.cc(343)] InitializeSandbox() called with multiple threads \</tspan>
<tspan x="10" y="810">in process gpu-process. </tspan>
<tspan x="10" y="826">[4426:0319/092413:ERROR:sandbox_linux.cc(343)] InitializeSandbox() called with multiple threads \</tspan>
<tspan x="10" y="842">in process gpu-process. </tspan>
<tspan x="10" y="858">[4396:0319/092413:ERROR:browser_gpu_channel_host_factory.cc(131)] Failed to create channel.</tspan>
<tspan x="10" y="874"></tspan>
<tspan x="10" y="890">browserTest - opened url file:///home/travis/build/npmdoc/node-npmdoc-gulp-sourcemaps/tmp/build/\</tspan>
<tspan x="10" y="906">apidoc.html</tspan>
<tspan x="10" y="922"></tspan>
<tspan x="10" y="938"></tspan>
<tspan x="10" y="954">browserTest - opened url http://127.0.0.1:51066?modeTest=1</tspan>
<tspan x="10" y="970"></tspan>
<tspan x="10" y="986">[4396:0319/092415:INFO:CONSOLE(203)] "----------|-----------|-----------|-----------|-----------\</tspan>
<tspan x="10" y="1002">|</tspan>
<tspan x="10" y="1018">File      |   % Stmts |% Branches |   % Funcs |   % Lines |</tspan>
<tspan x="10" y="1034">----------|-----------|-----------|-----------|-----------|</tspan>
<tspan x="10" y="1050">----------|-----------|-----------|-----------|-----------|</tspan>
<tspan x="10" y="1066">All files |       100 |       100 |       100 |       100 |</tspan>
<tspan x="10" y="1082">----------|-----------|-----------|-----------|-----------|</tspan>
<tspan x="10" y="1098">", source: file:///home/travis/build/npmdoc/node-npmdoc-gulp-sourcemaps/tmp/electron.15ae5e19a67\</tspan>
<tspan x="10" y="1114">0.cb2ddce0db04c.html (203)</tspan>
<tspan x="10" y="1130">[4396:0319/092415:INFO:CONSOLE(203)] "created coverage file:///tmp/build/coverage.html/index.htm\</tspan>
<tspan x="10" y="1146">l", source: file:///home/travis/build/npmdoc/node-npmdoc-gulp-sourcemaps/tmp/electron.15ae5e19a6\</tspan>
<tspan x="10" y="1162">70.cb2ddce0db04c.html (203)</tspan>
<tspan x="10" y="1178">[node test-case 4 of 6 passed] - testCase_buildApp_default</tspan>
<tspan x="10" y="1194"></tspan>
<tspan x="10" y="1210">browserTest - created screen-capture file:///home/travis/build/npmdoc/node-npmdoc-gulp-sourcemap\</tspan>
<tspan x="10" y="1226">s/tmp/build/screen-capture.npmTest.browser._2Fhome_2Ftravis_2Fbuild_2Fnpmdoc_2Fnode-npmdoc-gulp-\</tspan>
<tspan x="10" y="1242">sourcemaps_2Ftmp_2Fbuild_2Fapidoc.html.png</tspan>
<tspan x="10" y="1258"></tspan>
<tspan x="10" y="1274"></tspan>
<tspan x="10" y="1290">browserTest - exit-code 0 - file:///home/travis/build/npmdoc/node-npmdoc-gulp-sourcemaps/tmp/bui\</tspan>
<tspan x="10" y="1306">ld/apidoc.html</tspan>
<tspan x="10" y="1322"></tspan>
<tspan x="10" y="1338">[node test-case 5 of 6 passed] - testCase_buildApidoc_default</tspan>
<tspan x="10" y="1354"></tspan>
<tspan x="10" y="1370">browserTest - created screen-capture file:///home/travis/build/npmdoc/node-npmdoc-gulp-sourcemap\</tspan>
<tspan x="10" y="1386">s/tmp/build/screen-capture.npmTest.browser..png</tspan>
<tspan x="10" y="1402"></tspan>
<tspan x="10" y="1418"></tspan>
<tspan x="10" y="1434">browserTest - exit-code 0 - http://127.0.0.1:51066?modeTest=1</tspan>
<tspan x="10" y="1450"></tspan>
<tspan x="10" y="1466"></tspan>
<tspan x="10" y="1482">browserTest - merged coverage from /home/travis/build/npmdoc/node-npmdoc-gulp-sourcemaps/tmp/cov\</tspan>
<tspan x="10" y="1498">erage.npmTest.browser.%2F.json</tspan>
<tspan x="10" y="1514"></tspan>
<tspan x="10" y="1530"></tspan>
<tspan x="10" y="1546">browserTest - merging test-report from /home/travis/build/npmdoc/node-npmdoc-gulp-sourcemaps/tmp\</tspan>
<tspan x="10" y="1562">/test-report.npmTest.browser.%2F.json</tspan>
<tspan x="10" y="1578"></tspan>
<tspan x="10" y="1594">[node test-case 6 of 6 passed] - testCase_webpage_default</tspan>
<tspan x="10" y="1610">------------------------------------|-----------|-----------|-----------|-----------|</tspan>
<tspan x="10" y="1626">File                                |   % Stmts |% Branches |   % Funcs |   % Lines |</tspan>
<tspan x="10" y="1642">------------------------------------|-----------|-----------|-----------|-----------|</tspan>
<tspan x="10" y="1658">   node-npmdoc-gulp-sourcemaps/     |       100 |       100 |       100 |       100 |</tspan>
<tspan x="10" y="1674">      example.js                    |       100 |       100 |       100 |       100 |</tspan>
<tspan x="10" y="1690">      lib.npmdoc_gulp_sourcemaps.js |       100 |       100 |       100 |       100 |</tspan>
<tspan x="10" y="1706">      test.js                       |       100 |       100 |       100 |       100 |</tspan>
<tspan x="10" y="1722">------------------------------------|-----------|-----------|-----------|-----------|</tspan>
<tspan x="10" y="1738">All files                           |       100 |       100 |       100 |       100 |</tspan>
<tspan x="10" y="1754">------------------------------------|-----------|-----------|-----------|-----------|</tspan>
<tspan x="10" y="1770"></tspan>
<tspan x="10" y="1786">created coverage file:///home/travis/build/npmdoc/node-npmdoc-gulp-sourcemaps/tmp/build/coverage\</tspan>
<tspan x="10" y="1802">.html/index.html</tspan>
<tspan x="10" y="1818">merging file:///home/travis/build/npmdoc/node-npmdoc-gulp-sourcemaps/tmp/build/test-report.json \</tspan>
<tspan x="10" y="1834">to test-report</tspan>
<tspan x="10" y="1850"></tspan>
<tspan x="10" y="1866">-------------------------------------------------------</tspan>
<tspan x="10" y="1882">| test-report - buildNpmdoc - node - linux v7.7.3 - 2017-03-19T09:24:01.347Z</tspan>
<tspan x="10" y="1898">|   16128 ms            0 failed        6 passed      |</tspan>
<tspan x="10" y="1914">-------------------------------------------------------</tspan>
<tspan x="10" y="1930"></tspan>
<tspan x="10" y="1946">created test-report file:///home/travis/build/npmdoc/node-npmdoc-gulp-sourcemaps/tmp/build/test-\</tspan>
<tspan x="10" y="1962">report.html</tspan>
<tspan x="10" y="1978"></tspan>
<tspan x="10" y="1994"></tspan>
<tspan x="10" y="2010">npmTest - 0 failed tests</tspan>
<tspan x="10" y="2026"></tspan>
<tspan x="10" y="2042"></tspan>
<tspan x="10" y="2058">[MODE_BUILD=npmTest] - 2017-03-19T09:24:20Z - EXIT_CODE - 0</tspan>
</text>
</svg>
